<svg xmlns="http://www.w3.org/2000/svg" width="1200" height="675" viewBox="0 0 1200 675"><rect width="1200" height="675" fill="white"/><defs><marker id="a" markerWidth="8" markerHeight="8" refX="7" refY="4" orient="auto"><path d="M0,0 L8,4 L0,8" fill="#163cff"/></marker></defs><rect x="350" y="25" width="500" height="70" rx="14" fill="#f4f6ff" stroke="#163cff"/><text x="600.0" y="66" text-anchor="middle" font-family="Arial" font-size="20" fill="#111c35">Mục tiêu và cách khách dùng website</text><path d="M600 95 L600 125" stroke="#163cff" stroke-width="3" fill="none" marker-end="url(#a)"/><rect x="350" y="135" width="500" height="70" rx="14" fill="#f4f6ff" stroke="#163cff"/><text x="600.0" y="176" text-anchor="middle" font-family="Arial" font-size="20" fill="#111c35">Trang, nội dung và tính năng</text><path d="M350 185 L205 270" stroke="#163cff" stroke-width="3" fill="none" marker-end="url(#a)"/><path d="M600 205 L600 270" stroke="#163cff" stroke-width="3" fill="none" marker-end="url(#a)"/><path d="M850 185 L995 270" stroke="#163cff" stroke-width="3" fill="none" marker-end="url(#a)"/><rect x="40" y="280" width="330" height="70" rx="14" fill="#f4f6ff" stroke="#163cff"/><text x="205.0" y="321" text-anchor="middle" font-family="Arial" font-size="20" fill="#111c35">Phí triển khai gồm gì</text><rect x="435" y="280" width="330" height="70" rx="14" fill="#f4f6ff" stroke="#163cff"/><text x="600.0" y="321" text-anchor="middle" font-family="Arial" font-size="20" fill="#111c35">Vận hành và bên thứ ba</text><rect x="830" y="280" width="330" height="70" rx="14" fill="#f4f6ff" stroke="#163cff"/><text x="995.0" y="321" text-anchor="middle" font-family="Arial" font-size="20" fill="#111c35">Bàn giao và hỗ trợ</text><path d="M205 350 L465 490" stroke="#163cff" stroke-width="3" fill="none" marker-end="url(#a)"/><path d="M600 350 L600 490" stroke="#163cff" stroke-width="3" fill="none" marker-end="url(#a)"/><path d="M995 350 L735 490" stroke="#163cff" stroke-width="3" fill="none" marker-end="url(#a)"/><rect x="350" y="505" width="500" height="70" rx="14" fill="#f4f6ff" stroke="#163cff"/><text x="600.0" y="546" text-anchor="middle" font-family="Arial" font-size="20" fill="#111c35">So sánh cùng một phạm vi</text></svg>